<?xml version="1.0" encoding="UTF-8" standalone="no"?>
<svg
   width="567.00171"
   height="115.21514"
   version="1.2"
   viewBox="0 0 425.25128 86.411356"
   id="svg24"
   sodipodi:docname="Betsson_AB_Logo.svg"
   inkscape:version="1.2.2 (732a01da63, 2022-12-09)"
   xmlns:inkscape="http://www.inkscape.org/namespaces/inkscape"
   xmlns:sodipodi="http://sodipodi.sourceforge.net/DTD/sodipodi-0.dtd"
   xmlns="http://www.w3.org/2000/svg"
   xmlns:svg="http://www.w3.org/2000/svg">
  <defs
     id="defs28">
    <clipPath
       clipPathUnits="userSpaceOnUse"
       id="clipPath749">
      <rect
         style="fill:#000000;stroke-width:0.17341"
         id="rect751"
         width="99.996117"
         height="20.025402"
         x="233.02518"
         y="59.466255" />
    </clipPath>
  </defs>
  <sodipodi:namedview
     id="namedview26"
     pagecolor="#ffffff"
     bordercolor="#000000"
     borderopacity="0.25"
     inkscape:showpageshadow="2"
     inkscape:pageopacity="0.0"
     inkscape:pagecheckerboard="0"
     inkscape:deskcolor="#d1d1d1"
     showgrid="true"
     inkscape:lockguides="false"
     inkscape:zoom="1.3249068"
     inkscape:cx="287.56739"
     inkscape:cy="48.305283"
     inkscape:window-width="1600"
     inkscape:window-height="877"
     inkscape:window-x="-8"
     inkscape:window-y="-8"
     inkscape:window-maximized="1"
     inkscape:current-layer="svg24" />
  <g
     transform="matrix(4.325,0,0,4.325,-1006.5746,-262.28625)"
     id="g22"
     clip-path="url(#clipPath749)">
    <g
       fill="#00b0b5"
       id="g16">
      <path
         d="m 237.67,75.035 c 0.28515,0.22656 0.58203,0.44922 0.88281,0.67188 0.30469,0.22266 0.62891,0.42188 0.97266,0.60156 0.34375,0.17578 0.72265,0.31641 1.1367,0.42969 0.41406,0.10938 0.8789,0.16797 1.3906,0.16797 0.57422,0 1.1289,-0.09375 1.6641,-0.27734 0.53516,-0.18359 1.0078,-0.45312 1.4141,-0.81641 0.40625,-0.35547 0.73437,-0.80859 0.98046,-1.3516 0.25,-0.54297 0.375,-1.1641 0.375,-1.8672 0,-0.71875 -0.1289,-1.3477 -0.38671,-1.8945 -0.25391,-0.54297 -0.59375,-0.99219 -1.0156,-1.3516 -0.42578,-0.35938 -0.91016,-0.63281 -1.4492,-0.8125 -0.54297,-0.1875 -1.1016,-0.27734 -1.6797,-0.27734 -0.54296,0 -1.0234,0.05469 -1.4492,0.16797 -0.42188,0.10938 -0.8125,0.25391 -1.1602,0.42969 -0.35156,0.17578 -0.66406,0.36719 -0.93359,0.57812 -0.27344,0.20312 -0.51954,0.40234 -0.74219,0.59766 z m -2.9727,-13.438 h 2.9727 v 5.8945 c 0.3164,-0.22656 0.63672,-0.44531 0.95703,-0.66016 0.32031,-0.21484 0.67187,-0.41016 1.0547,-0.57422 0.38281,-0.16797 0.80859,-0.30078 1.2812,-0.39844 0.47265,-0.09375 1.0156,-0.14453 1.6406,-0.14453 1.0547,0 2.0078,0.17188 2.8633,0.51953 0.85547,0.34375 1.582,0.8125 2.1797,1.4141 0.60156,0.59766 1.0586,1.3125 1.3789,2.1445 0.3164,0.82812 0.48047,1.7305 0.48047,2.7031 0,1.0859 -0.1836,2.0625 -0.55079,2.9258 -0.37109,0.85938 -0.85937,1.5938 -1.4766,2.1914 -0.61328,0.59766 -1.3359,1.0547 -2.1562,1.3633 -0.82422,0.3125 -1.6875,0.46875 -2.5976,0.46875 -0.73438,0 -1.3867,-0.08203 -1.9531,-0.23828 -0.56641,-0.16016 -1.0586,-0.34766 -1.4727,-0.5625 -0.41796,-0.21875 -0.75781,-0.44531 -1.0312,-0.68359 -0.27343,-0.24219 -0.48828,-0.4375 -0.64843,-0.60156 v 1.6523 h -2.9219 z"
         id="path2" />
      <path
         d="m 261.05,71.109 c -0.22265,-1.0859 -0.6875,-1.8555 -1.3984,-2.3125 -0.71094,-0.45703 -1.6016,-0.68359 -2.6719,-0.68359 -0.38281,0 -0.77734,0.03906 -1.1875,0.11719 -0.40625,0.08203 -0.78906,0.23438 -1.1523,0.45703 -0.35547,0.22266 -0.67969,0.52734 -0.96485,0.91016 -0.28906,0.38281 -0.5039,0.88672 -0.64843,1.5117 z m 2.9258,4.0469 c -0.0469,0.26953 -0.20313,0.64453 -0.46875,1.125 -0.26172,0.48047 -0.65625,0.94922 -1.1836,1.4141 -0.52734,0.46484 -1.2031,0.875 -2.0273,1.2266 -0.82031,0.34766 -1.832,0.52344 -3.0312,0.52344 -1.1484,0 -2.1797,-0.17187 -3.0898,-0.51562 -0.91015,-0.33984 -1.6797,-0.81641 -2.3086,-1.4258 -0.63281,-0.60547 -1.1172,-1.332 -1.4531,-2.1797 -0.33594,-0.84766 -0.50391,-1.7734 -0.50391,-2.7773 0,-0.91016 0.14844,-1.7773 0.44531,-2.6016 0.29688,-0.82031 0.74219,-1.5469 1.3398,-2.1797 0.60156,-0.63281 1.3438,-1.1289 2.2422,-1.4961 0.89063,-0.36719 1.9336,-0.55469 3.1133,-0.55469 1.2109,0.01953 2.2695,0.21094 3.1641,0.57812 0.89453,0.36719 1.6367,0.88281 2.2266,1.543 0.58984,0.66406 1.0352,1.4688 1.332,2.4102 0.29297,0.94141 0.44141,1.9961 0.44141,3.1602 h -11.285 c 0.0352,0.21094 0.10156,0.50781 0.20703,0.89844 0.10156,0.39062 0.29688,0.78516 0.58594,1.1758 0.28516,0.39062 0.70703,0.74219 1.2578,1.0547 0.55078,0.30859 1.2812,0.48438 2.1875,0.51172 0.94531,0 1.7148,-0.18359 2.3164,-0.5625 0.59765,-0.37109 1.0078,-0.81641 1.2305,-1.3281 z"
         id="path4" />
      <path
         d="m 264.07,66.582 h 2.3008 v -4.1953 h 2.9726 v 4.1953 h 4.4805 v 2.5391 h -4.4805 v 5.8945 c 0,0.22266 0.0234,0.44922 0.082,0.67969 0.0547,0.23047 0.16016,0.43359 0.3086,0.61328 0.15234,0.17188 0.36719,0.31641 0.63672,0.42969 0.27343,0.11328 0.625,0.16797 1.0547,0.16797 0.28907,0 0.6875,-0.03125 1.1992,-0.09766 0.50782,-0.0625 0.95703,-0.15234 1.3398,-0.26172 v 2.6094 c -0.36719,0.05078 -0.6875,0.09375 -0.96875,0.13281 -0.28125,0.04297 -0.54297,0.07031 -0.79297,0.09375 -0.2461,0.02734 -0.48828,0.04297 -0.71485,0.05078 -0.23437,0.0078 -0.48046,0.01172 -0.73437,0.01172 -0.70313,0 -1.3281,-0.06641 -1.8789,-0.19141 -0.55078,-0.12891 -1.0117,-0.33203 -1.3789,-0.625 -0.36719,-0.28125 -0.64453,-0.66797 -0.83594,-1.1484 -0.19528,-0.48046 -0.28903,-1.0703 -0.28903,-1.7695 v -6.5898 h -2.3008 z"
         id="path6" />
      <path
         d="m 284.6,70.102 c -0.10938,-0.14453 -0.26563,-0.33203 -0.46485,-0.5625 -0.19922,-0.23047 -0.46484,-0.45703 -0.79297,-0.67187 -0.32812,-0.21484 -0.73047,-0.39844 -1.207,-0.55078 -0.48047,-0.15234 -1.0547,-0.22656 -1.7266,-0.22656 -0.54297,0 -1,0.04687 -1.3633,0.14062 -0.3711,0.09766 -0.66797,0.22266 -0.88672,0.375 -0.22656,0.15234 -0.38672,0.31641 -0.48047,0.5 -0.0977,0.1875 -0.14453,0.36719 -0.14453,0.53906 0,0.25781 0.0742,0.46094 0.22656,0.61328 0.15625,0.15234 0.35938,0.28125 0.625,0.38281 0.26172,0.10547 0.57813,0.18359 0.94531,0.23828 0.36719,0.05859 0.77344,0.11719 1.2227,0.17969 0.875,0.11328 1.7227,0.24609 2.5391,0.39844 0.8125,0.15234 1.5312,0.375 2.1562,0.66797 0.625,0.29688 1.1172,0.6875 1.4844,1.1758 0.3672,0.4883 0.55078,1.1289 0.55078,1.9258 0,0.625 -0.10938,1.1641 -0.33594,1.6172 -0.22265,0.45703 -0.51562,0.83984 -0.875,1.1523 -0.35937,0.30859 -0.76562,0.5625 -1.2188,0.75391 -0.45703,0.19141 -0.92187,0.33984 -1.4023,0.44531 -0.48047,0.10156 -0.94141,0.16797 -1.3906,0.20313 -0.44531,0.03125 -0.84375,0.04687 -1.1992,0.04687 -1.0976,0 -2.0312,-0.09766 -2.7891,-0.30078 -0.75781,-0.19531 -1.3984,-0.44922 -1.918,-0.75391 -0.51953,-0.30078 -0.94922,-0.64062 -1.293,-1.0195 -0.34375,-0.375 -0.64843,-0.73047 -0.92187,-1.0625 l 2.5156,-1.4648 c 0.25391,0.41797 0.55469,0.76953 0.89844,1.0586 0.34375,0.28516 0.71875,0.51172 1.125,0.68359 0.41016,0.16406 0.83985,0.28125 1.293,0.35547 0.45703,0.07422 0.91406,0.10547 1.3789,0.10547 0.40234,0 0.77734,-0.02734 1.1406,-0.09375 0.35547,-0.0625 0.67578,-0.15625 0.95703,-0.28516 0.27735,-0.12891 0.50391,-0.29297 0.66797,-0.49219 0.17188,-0.19922 0.25391,-0.44531 0.25391,-0.73047 0,-0.24219 -0.0547,-0.43359 -0.16797,-0.58984 -0.11328,-0.15234 -0.3125,-0.27344 -0.60156,-0.36719 -0.28516,-0.09766 -0.67969,-0.18359 -1.1836,-0.26562 -0.5039,-0.08203 -1.1484,-0.17578 -1.9258,-0.28516 -1.2188,-0.16016 -2.207,-0.375 -2.9726,-0.63672 -0.76563,-0.26562 -1.3672,-0.57812 -1.7969,-0.93359 -0.43359,-0.36328 -0.72266,-0.75781 -0.875,-1.1875 -0.15234,-0.43359 -0.22656,-0.89453 -0.22656,-1.3867 0,-0.33594 0.0781,-0.74219 0.23828,-1.2109 0.16016,-0.47266 0.46094,-0.91797 0.91016,-1.3438 0.44531,-0.42188 1.0664,-0.78516 1.8555,-1.0898 0.79297,-0.30078 1.8086,-0.45703 3.0547,-0.45703 0.3711,0 0.82813,0.03516 1.3789,0.09766 0.55077,0.0625 1.1289,0.19922 1.7383,0.40625 0.60547,0.21094 1.2148,0.51563 1.832,0.92578 0.61328,0.40625 1.1602,0.94531 1.6406,1.6172 z"
         id="path8" />
      <path
         d="m 298.04,70.102 c -0.10937,-0.14453 -0.26562,-0.33203 -0.46484,-0.5625 -0.20313,-0.23047 -0.46485,-0.45703 -0.79297,-0.67187 -0.32813,-0.21484 -0.73438,-0.39844 -1.207,-0.55078 -0.48047,-0.15234 -1.0547,-0.22656 -1.7305,-0.22656 -0.53906,0 -0.99609,0.04687 -1.3633,0.14062 -0.36719,0.09766 -0.66406,0.22266 -0.88672,0.375 -0.22266,0.15234 -0.38281,0.31641 -0.47656,0.5 -0.0977,0.1875 -0.14453,0.36719 -0.14453,0.53906 0,0.25781 0.0742,0.46094 0.22656,0.61328 0.15234,0.15234 0.35937,0.28125 0.625,0.38281 0.26172,0.10547 0.57812,0.18359 0.94531,0.23828 0.36719,0.05859 0.77344,0.11719 1.2188,0.17969 0.87891,0.11328 1.7266,0.24609 2.543,0.39844 0.8125,0.15234 1.5312,0.375 2.1562,0.66797 0.62109,0.29688 1.1172,0.6875 1.4844,1.1758 0.36719,0.48828 0.55079,1.1289 0.55079,1.9258 0,0.625 -0.11329,1.1641 -0.33594,1.6172 -0.22266,0.45703 -0.51563,0.83984 -0.875,1.1523 -0.35938,0.30859 -0.76563,0.5625 -1.2227,0.75391 -0.45312,0.19141 -0.92187,0.33984 -1.3984,0.44531 -0.48046,0.10156 -0.9414,0.16797 -1.3906,0.20313 -0.44922,0.03125 -0.84766,0.04687 -1.1992,0.04687 -1.1016,0 -2.0312,-0.09766 -2.793,-0.30078 -0.75781,-0.19531 -1.3984,-0.44922 -1.9141,-0.75391 -0.51953,-0.30078 -0.94922,-0.64062 -1.293,-1.0195 -0.34375,-0.375 -0.65234,-0.73047 -0.92187,-1.0625 l 2.5156,-1.4648 c 0.25391,0.41797 0.55469,0.76953 0.89844,1.0586 0.34375,0.28516 0.71484,0.51172 1.125,0.68359 0.41015,0.16406 0.83984,0.28125 1.293,0.35547 0.45703,0.07422 0.91406,0.10547 1.3789,0.10547 0.39844,0 0.78125,-0.02734 1.1367,-0.09375 0.35938,-0.0625 0.67969,-0.15625 0.96094,-0.28516 0.27734,-0.12891 0.50391,-0.29297 0.66797,-0.49219 0.16797,-0.19922 0.2539,-0.44531 0.2539,-0.73047 0,-0.24219 -0.0586,-0.43359 -0.16796,-0.58984 -0.11329,-0.15234 -0.3125,-0.27344 -0.60157,-0.36719 -0.28515,-0.09766 -0.67968,-0.18359 -1.1836,-0.26562 -0.50391,-0.08203 -1.1484,-0.17578 -1.9297,-0.28516 -1.2109,-0.16016 -2.2031,-0.375 -2.9688,-0.63672 -0.76562,-0.26562 -1.3672,-0.57812 -1.8008,-0.93359 -0.42969,-0.36328 -0.71875,-0.75781 -0.875,-1.1875 -0.14844,-0.43359 -0.22656,-0.89453 -0.22656,-1.3867 0,-0.33594 0.082,-0.74219 0.24219,-1.2109 0.15625,-0.47266 0.46093,-0.91797 0.91015,-1.3438 0.44531,-0.42188 1.0664,-0.78516 1.8555,-1.0898 0.79297,-0.30078 1.8086,-0.45703 3.0547,-0.45703 0.36719,0 0.82812,0.03516 1.3789,0.09766 0.55079,0.0625 1.1289,0.19922 1.7344,0.40625 0.60937,0.21094 1.2188,0.51563 1.8359,0.92578 0.61328,0.40625 1.1602,0.94531 1.6367,1.6172 z"
         id="path10" />
      <path
         d="m 308.15,76.906 c 1.3438,0 2.375,-0.39062 3.1016,-1.1641 0.72656,-0.77344 1.0898,-1.8477 1.0898,-3.2188 0,-0.75391 -0.10937,-1.3984 -0.33593,-1.9414 -0.22266,-0.54297 -0.52344,-0.98828 -0.90625,-1.3281 -0.38672,-0.34766 -0.83204,-0.59766 -1.3438,-0.75781 -0.51172,-0.16016 -1.0469,-0.23828 -1.6055,-0.23828 -0.57422,0 -1.1133,0.07813 -1.6172,0.23828 -0.50391,0.16016 -0.94531,0.41016 -1.3281,0.75781 -0.38281,0.33984 -0.6875,0.78516 -0.91015,1.3281 -0.22266,0.54297 -0.33594,1.1875 -0.33594,1.9414 0,1.3711 0.36328,2.4453 1.0898,3.2188 0.72657,0.77344 1.7617,1.1641 3.1016,1.1641 m 0,2.5391 c -0.87891,0 -1.7461,-0.11719 -2.6094,-0.34766 -0.86328,-0.23047 -1.6328,-0.62109 -2.3164,-1.1602 -0.67579,-0.54297 -1.2266,-1.2578 -1.6484,-2.1367 -0.42578,-0.875 -0.63672,-1.9531 -0.63672,-3.2344 0,-0.85547 0.13672,-1.7031 0.40625,-2.5234 0.27344,-0.82422 0.69922,-1.5547 1.2812,-2.1953 0.58594,-0.63672 1.332,-1.1523 2.2422,-1.543 0.91015,-0.39063 2.0039,-0.58594 3.2812,-0.58594 1.2773,0 2.3711,0.19531 3.2812,0.58594 0.91015,0.39062 1.6562,0.90625 2.2422,1.543 0.58204,0.64062 1.0078,1.3711 1.2812,2.1953 0.27344,0.82031 0.40625,1.668 0.40625,2.5234 0,1.2812 -0.21093,2.3594 -0.63281,3.2344 -0.42578,0.87891 -0.97656,1.5938 -1.6562,2.1367 -0.67578,0.53906 -1.4453,0.92969 -2.3086,1.1602 -0.86328,0.23047 -1.7344,0.34766 -2.6133,0.34766"
         id="path12" />
      <path
         d="m 316.54,66.148 h 2.9219 v 1.6055 c 0.23828,-0.22266 0.5,-0.45312 0.77734,-0.69531 0.27735,-0.23828 0.60938,-0.45703 0.99219,-0.66016 0.38672,-0.19922 0.82422,-0.36328 1.3242,-0.48828 0.49219,-0.12891 1.0664,-0.19141 1.7227,-0.19141 0.67187,0 1.3086,0.07813 1.9141,0.23828 0.60937,0.16016 1.1445,0.42969 1.6055,0.81641 0.46484,0.38281 0.83203,0.90234 1.1016,1.5547 0.27344,0.65625 0.40625,1.4688 0.40625,2.4414 v 8.2422 h -2.9688 v -7.1367 c 0,-1.2773 -0.20703,-2.1992 -0.62109,-2.7695 -0.41407,-0.56641 -1.125,-0.84766 -2.1328,-0.84766 -0.59375,0 -1.1016,0.05469 -1.5352,0.16797 -0.42969,0.10938 -0.80078,0.25781 -1.1133,0.44141 -0.3125,0.18359 -0.57813,0.38672 -0.80469,0.61328 -0.22266,0.22266 -0.42969,0.44531 -0.62109,0.66797 v 8.8633 h -2.9688 z"
         id="path14" />
    </g>
    <path
       d="m 345.27,72.547 c -0.0312,-2.918 -2.0195,-5.1523 -4.9336,-5.1211 -2.9219,0.02734 -4.7461,2.2461 -4.7188,5.1641 0.0352,2.918 1.9062,5.1211 4.8203,5.0898 2.9219,-0.03125 4.8594,-2.2461 4.832,-5.1328 m -10.836,0.05078 c -0.0391,-3.4609 2.3945,-6.1484 5.7148,-6.1836 2.3984,-0.02344 4.1719,1.2852 5.0625,3.125 l -0.0625,-2.918 1.1289,-0.01172 0.12109,11.789 -1.125,0.01172 v -2.918 c -0.84765,1.8008 -2.6836,3.1758 -4.9961,3.2031 -3.3242,0.03516 -5.8086,-2.6289 -5.8438,-6.0977"
       fill="#f5a123"
       id="path18" />
    <path
       d="m 359.14,72.34 c -0.0312,-2.918 -1.9297,-5.0938 -4.8516,-5.0625 -2.9726,0.03125 -4.918,2.2461 -4.8867,5.168 0.0312,2.918 2.0195,5.1211 4.9961,5.0898 2.918,-0.03125 4.7734,-2.2734 4.7422,-5.1953 m -9.6758,3.082 0.0859,2.9453 -1.125,0.01172 -0.21875,-20.859 1.125,-0.01172 0.125,11.871 c 0.84766,-1.7695 2.5664,-3.0898 4.9648,-3.1133 3.3789,-0.03516 5.8633,2.5977 5.9024,6.0625 0.0351,3.4648 -2.3906,6.1797 -5.7734,6.2148 -2.2812,0.02344 -4.2305,-1.3125 -5.0859,-3.1211"
       fill="#f5a123"
       id="path20" />
  </g>
</svg>
